<mxfile host="app.diagrams.net" modified="2023-06-06T14:53:36.182Z" agent="Mozilla/5.0 (Windows NT 10.0; Win64; x64) AppleWebKit/537.36 (KHTML, like Gecko) Chrome/114.0.0.0 Safari/537.36 Edg/114.0.1823.37" etag="YfT3KuF9udGt4MMs0a5B" version="21.3.7" type="device">
  <diagram name="Страница 1" id="n2r70ahn1l-4qC_H-3-1">
    <mxGraphModel dx="1149" dy="630" grid="1" gridSize="10" guides="1" tooltips="1" connect="1" arrows="1" fold="1" page="1" pageScale="1" pageWidth="827" pageHeight="1169" math="0" shadow="0">
      <root>
        <mxCell id="0" />
        <mxCell id="1" parent="0" />
        <mxCell id="T_txXlZFbfSdy-RqQx76-1" value="Система" style="shape=umlLifeline;perimeter=lifelinePerimeter;whiteSpace=wrap;html=1;container=1;dropTarget=0;collapsible=0;recursiveResize=0;outlineConnect=0;portConstraint=eastwest;newEdgeStyle={&quot;edgeStyle&quot;:&quot;elbowEdgeStyle&quot;,&quot;elbow&quot;:&quot;vertical&quot;,&quot;curved&quot;:0,&quot;rounded&quot;:0};" vertex="1" parent="1">
          <mxGeometry x="520" y="115" width="100" height="445" as="geometry" />
        </mxCell>
        <mxCell id="T_txXlZFbfSdy-RqQx76-24" value="" style="html=1;points=[];perimeter=orthogonalPerimeter;outlineConnect=0;targetShapes=umlLifeline;portConstraint=eastwest;newEdgeStyle={&quot;edgeStyle&quot;:&quot;elbowEdgeStyle&quot;,&quot;elbow&quot;:&quot;vertical&quot;,&quot;curved&quot;:0,&quot;rounded&quot;:0};" vertex="1" parent="T_txXlZFbfSdy-RqQx76-1">
          <mxGeometry x="45" y="145" width="10" height="105" as="geometry" />
        </mxCell>
        <mxCell id="T_txXlZFbfSdy-RqQx76-25" value="Занести данные о товаре" style="html=1;verticalAlign=bottom;endArrow=block;edgeStyle=elbowEdgeStyle;elbow=vertical;curved=0;rounded=0;" edge="1" target="T_txXlZFbfSdy-RqQx76-24" parent="T_txXlZFbfSdy-RqQx76-1">
          <mxGeometry x="-1" y="-35" relative="1" as="geometry">
            <mxPoint x="-25" y="145" as="sourcePoint" />
            <mxPoint x="-35" y="-35" as="offset" />
          </mxGeometry>
        </mxCell>
        <mxCell id="T_txXlZFbfSdy-RqQx76-26" value="Данные занесены" style="html=1;verticalAlign=bottom;endArrow=open;dashed=1;endSize=8;edgeStyle=elbowEdgeStyle;elbow=vertical;curved=0;rounded=0;" edge="1" source="T_txXlZFbfSdy-RqQx76-24" parent="T_txXlZFbfSdy-RqQx76-1">
          <mxGeometry relative="1" as="geometry">
            <mxPoint x="-190" y="215" as="targetPoint" />
          </mxGeometry>
        </mxCell>
        <mxCell id="T_txXlZFbfSdy-RqQx76-28" value="" style="html=1;points=[];perimeter=orthogonalPerimeter;outlineConnect=0;targetShapes=umlLifeline;portConstraint=eastwest;newEdgeStyle={&quot;edgeStyle&quot;:&quot;elbowEdgeStyle&quot;,&quot;elbow&quot;:&quot;vertical&quot;,&quot;curved&quot;:0,&quot;rounded&quot;:0};" vertex="1" parent="T_txXlZFbfSdy-RqQx76-1">
          <mxGeometry x="50" y="185" width="10" height="40" as="geometry" />
        </mxCell>
        <mxCell id="T_txXlZFbfSdy-RqQx76-29" value="Внести указанные данные в базу данных" style="html=1;align=left;spacingLeft=2;endArrow=block;rounded=0;edgeStyle=orthogonalEdgeStyle;curved=0;rounded=0;" edge="1" target="T_txXlZFbfSdy-RqQx76-28" parent="T_txXlZFbfSdy-RqQx76-1">
          <mxGeometry relative="1" as="geometry">
            <mxPoint x="55" y="165" as="sourcePoint" />
            <Array as="points">
              <mxPoint x="85" y="195" />
            </Array>
          </mxGeometry>
        </mxCell>
        <mxCell id="T_txXlZFbfSdy-RqQx76-33" value="" style="html=1;points=[];perimeter=orthogonalPerimeter;outlineConnect=0;targetShapes=umlLifeline;portConstraint=eastwest;newEdgeStyle={&quot;edgeStyle&quot;:&quot;elbowEdgeStyle&quot;,&quot;elbow&quot;:&quot;vertical&quot;,&quot;curved&quot;:0,&quot;rounded&quot;:0};" vertex="1" parent="T_txXlZFbfSdy-RqQx76-1">
          <mxGeometry x="45" y="335" width="10" height="40" as="geometry" />
        </mxCell>
        <mxCell id="T_txXlZFbfSdy-RqQx76-34" value="Внести указанные данные для отчета" style="html=1;align=left;spacingLeft=2;endArrow=block;rounded=0;edgeStyle=orthogonalEdgeStyle;curved=0;rounded=0;" edge="1" target="T_txXlZFbfSdy-RqQx76-33" parent="T_txXlZFbfSdy-RqQx76-1">
          <mxGeometry relative="1" as="geometry">
            <mxPoint x="50" y="315" as="sourcePoint" />
            <Array as="points">
              <mxPoint x="80" y="345" />
            </Array>
          </mxGeometry>
        </mxCell>
        <mxCell id="T_txXlZFbfSdy-RqQx76-35" value="" style="html=1;points=[];perimeter=orthogonalPerimeter;outlineConnect=0;targetShapes=umlLifeline;portConstraint=eastwest;newEdgeStyle={&quot;edgeStyle&quot;:&quot;elbowEdgeStyle&quot;,&quot;elbow&quot;:&quot;vertical&quot;,&quot;curved&quot;:0,&quot;rounded&quot;:0};" vertex="1" parent="T_txXlZFbfSdy-RqQx76-1">
          <mxGeometry x="45" y="305" width="10" height="80" as="geometry" />
        </mxCell>
        <mxCell id="T_txXlZFbfSdy-RqQx76-36" value="Ввести информацию для отчета" style="html=1;verticalAlign=bottom;endArrow=block;edgeStyle=elbowEdgeStyle;elbow=vertical;curved=0;rounded=0;" edge="1" target="T_txXlZFbfSdy-RqQx76-35" parent="T_txXlZFbfSdy-RqQx76-1">
          <mxGeometry relative="1" as="geometry">
            <mxPoint x="-190" y="305" as="sourcePoint" />
            <Array as="points">
              <mxPoint x="30" y="305" />
            </Array>
          </mxGeometry>
        </mxCell>
        <mxCell id="T_txXlZFbfSdy-RqQx76-37" value="Вывести отчет" style="html=1;verticalAlign=bottom;endArrow=open;dashed=1;endSize=8;edgeStyle=elbowEdgeStyle;elbow=vertical;curved=0;rounded=0;" edge="1" source="T_txXlZFbfSdy-RqQx76-35" parent="T_txXlZFbfSdy-RqQx76-1">
          <mxGeometry relative="1" as="geometry">
            <mxPoint x="-190" y="385" as="targetPoint" />
          </mxGeometry>
        </mxCell>
        <mxCell id="T_txXlZFbfSdy-RqQx76-10" value="" style="group" vertex="1" connectable="0" parent="1">
          <mxGeometry x="60" y="100" width="280" height="430" as="geometry" />
        </mxCell>
        <mxCell id="T_txXlZFbfSdy-RqQx76-11" value="" style="endArrow=none;html=1;rounded=0;align=center;verticalAlign=bottom;dashed=1;endFill=0;labelBackgroundColor=none;" edge="1" parent="T_txXlZFbfSdy-RqQx76-10">
          <mxGeometry relative="1" as="geometry">
            <mxPoint x="15" y="80" as="sourcePoint" />
            <mxPoint x="15" y="460" as="targetPoint" />
          </mxGeometry>
        </mxCell>
        <mxCell id="T_txXlZFbfSdy-RqQx76-12" value="Сдатчик" style="shape=umlActor;verticalLabelPosition=bottom;verticalAlign=top;html=1;" vertex="1" parent="T_txXlZFbfSdy-RqQx76-10">
          <mxGeometry width="30" height="60" as="geometry" />
        </mxCell>
        <mxCell id="T_txXlZFbfSdy-RqQx76-9" value="" style="group" vertex="1" connectable="0" parent="T_txXlZFbfSdy-RqQx76-10">
          <mxGeometry x="250" width="30" height="430" as="geometry" />
        </mxCell>
        <mxCell id="T_txXlZFbfSdy-RqQx76-4" value="" style="endArrow=none;html=1;rounded=0;align=center;verticalAlign=bottom;dashed=1;endFill=0;labelBackgroundColor=none;" edge="1" parent="T_txXlZFbfSdy-RqQx76-9">
          <mxGeometry relative="1" as="geometry">
            <mxPoint x="15" y="80" as="sourcePoint" />
            <mxPoint x="15" y="460" as="targetPoint" />
          </mxGeometry>
        </mxCell>
        <mxCell id="T_txXlZFbfSdy-RqQx76-6" value="Заготовщик" style="shape=umlActor;verticalLabelPosition=bottom;verticalAlign=top;html=1;" vertex="1" parent="T_txXlZFbfSdy-RqQx76-9">
          <mxGeometry width="30" height="60" as="geometry" />
        </mxCell>
        <mxCell id="T_txXlZFbfSdy-RqQx76-27" style="edgeStyle=elbowEdgeStyle;rounded=0;orthogonalLoop=1;jettySize=auto;html=1;elbow=vertical;curved=0;endArrow=none;endFill=0;" edge="1" parent="T_txXlZFbfSdy-RqQx76-9" source="T_txXlZFbfSdy-RqQx76-17">
          <mxGeometry relative="1" as="geometry">
            <mxPoint x="210" y="160" as="targetPoint" />
          </mxGeometry>
        </mxCell>
        <mxCell id="T_txXlZFbfSdy-RqQx76-17" value="" style="html=1;points=[];perimeter=orthogonalPerimeter;outlineConnect=0;targetShapes=umlLifeline;portConstraint=eastwest;newEdgeStyle={&quot;edgeStyle&quot;:&quot;elbowEdgeStyle&quot;,&quot;elbow&quot;:&quot;vertical&quot;,&quot;curved&quot;:0,&quot;rounded&quot;:0};" vertex="1" parent="T_txXlZFbfSdy-RqQx76-9">
          <mxGeometry x="10" y="110" width="10" height="130" as="geometry" />
        </mxCell>
        <mxCell id="T_txXlZFbfSdy-RqQx76-18" value="Передать товар" style="html=1;verticalAlign=bottom;startArrow=oval;endArrow=block;startSize=8;edgeStyle=elbowEdgeStyle;elbow=vertical;curved=0;rounded=0;" edge="1" target="T_txXlZFbfSdy-RqQx76-17" parent="T_txXlZFbfSdy-RqQx76-9">
          <mxGeometry relative="1" as="geometry">
            <mxPoint x="-230" y="110" as="sourcePoint" />
          </mxGeometry>
        </mxCell>
        <mxCell id="T_txXlZFbfSdy-RqQx76-38" value="" style="html=1;points=[];perimeter=orthogonalPerimeter;outlineConnect=0;targetShapes=umlLifeline;portConstraint=eastwest;newEdgeStyle={&quot;edgeStyle&quot;:&quot;elbowEdgeStyle&quot;,&quot;elbow&quot;:&quot;vertical&quot;,&quot;curved&quot;:0,&quot;rounded&quot;:0};" vertex="1" parent="T_txXlZFbfSdy-RqQx76-9">
          <mxGeometry x="10" y="310" width="10" height="120" as="geometry" />
        </mxCell>
      </root>
    </mxGraphModel>
  </diagram>
</mxfile>
